<svg width="41" height="35" viewBox="0 0 41 35" fill="none" xmlns="http://www.w3.org/2000/svg">
<mask id="mask0_48_492" style="mask-type:luminance" maskUnits="userSpaceOnUse" x="0" y="0" width="41" height="35">
<path d="M40.8 0H0V34.22H40.8V0Z" fill="white"/>
</mask>
<g mask="url(#mask0_48_492)">
<path d="M38.7259 22.1395C37.7109 21.1261 36.4119 20.4451 35.0012 20.1866C33.5904 19.9281 32.1342 20.1043 30.8259 20.6919C30.866 19.7184 30.704 18.7471 30.3499 17.8392C29.996 16.9314 29.4575 16.1067 28.7688 15.4173H28.7655L32.103 12.0808C32.763 11.4245 33.2871 10.6445 33.6452 9.78539C34.0033 8.92632 34.1884 8.00507 34.1897 7.0744C34.191 6.14372 34.0088 5.22192 33.6534 4.36178C33.2978 3.50162 32.7762 2.72006 32.118 2.06182C31.46 1.40358 30.6785 0.881599 29.8183 0.525789C28.958 0.169978 28.0361 -0.0126764 27.1052 -0.011715C26.1743 -0.0107536 25.2528 0.173807 24.3934 0.531394C23.534 0.888981 22.7535 1.41257 22.0968 2.07217C21.3191 2.84673 20.7356 3.79413 20.394 4.83707C20.0495 3.82933 19.4816 2.91239 18.7331 2.15464C17.9846 1.39688 17.0745 0.817861 16.071 0.460767C15.0674 0.103673 13.9961 -0.022282 12.937 0.0922965C11.878 0.206874 10.8584 0.55903 9.95447 1.1225C9.05051 1.68596 8.28546 2.4462 7.71639 3.3465C7.14731 4.24681 6.7889 5.26395 6.66785 6.32206C6.54682 7.38019 6.66629 8.45196 7.01736 9.45749C7.36843 10.463 7.94204 11.3763 8.69542 12.1293L12.0333 15.4687L12.0306 15.4671C11.3537 16.1437 10.8217 16.951 10.4671 17.8397C10.1124 18.7286 9.94252 19.6803 9.96774 20.6368C8.79024 20.1099 7.4911 19.9149 6.21075 20.0728C4.93041 20.2306 3.71759 20.7353 2.70338 21.5323C1.68918 22.3295 0.912201 23.3885 0.456434 24.595C0.000667487 25.8016 -0.116542 27.1098 0.117476 28.3781C0.351494 29.6465 0.927835 30.8267 1.7842 31.7914C2.64055 32.7559 3.74435 33.4681 4.97624 33.8509C6.20814 34.2338 7.52129 34.2728 8.77369 33.9634C10.0261 33.6543 11.1701 33.0086 12.0821 32.0964L15.3713 28.813C16.6988 30.14 18.4992 30.8854 20.3764 30.8854C22.2535 30.8854 24.054 30.14 25.3815 28.813L28.7143 32.1464C30.0423 33.4699 31.8414 34.2124 33.7166 34.2109C35.5917 34.2096 37.3897 33.4644 38.7157 32.1389C40.0419 30.8135 40.7877 29.0161 40.7895 27.1414C40.7914 25.2667 40.0492 23.468 38.7259 22.1398V22.1395ZM23.7629 3.73905C24.6481 2.85503 25.8483 2.35848 27.0994 2.35848C28.3507 2.35848 29.5509 2.85503 30.4361 3.73905V3.74288C30.8742 4.18087 31.2218 4.70085 31.4588 5.27313C31.6959 5.84541 31.8179 6.45878 31.8179 7.07821C31.8179 7.69764 31.6959 8.31101 31.4588 8.88327C31.2218 9.45555 30.8742 9.97555 30.4361 10.4135L27.0999 13.7491L23.7629 10.4135C22.8778 9.52835 22.3805 8.32794 22.3805 7.07629C22.3805 5.82463 22.8778 4.62422 23.7629 3.73905ZM10.4167 30.4307C9.75667 31.0909 8.91567 31.5404 8.00006 31.7225C7.08446 31.9049 6.13535 31.8114 5.27282 31.4544C4.41028 31.0972 3.67305 30.4925 3.15433 29.7163C2.63563 28.9403 2.35878 28.028 2.35878 27.0946C2.35878 26.1612 2.63563 25.2489 3.15433 24.4729C3.67305 23.6968 4.41028 23.092 5.27282 22.7348C6.13535 22.3778 7.08446 22.2845 8.00006 22.4667C8.91567 22.6488 9.75667 23.0985 10.4167 23.7585L13.6999 27.1419L10.4167 30.4307ZM13.7484 23.7567L13.1916 23.1983C12.5475 22.2901 12.2453 21.1836 12.3383 20.0743C12.4313 18.9649 12.9136 17.9242 13.6999 17.1359C14.5757 18.012 15.0718 19.1976 15.0808 20.4363C15.0899 21.6751 14.6113 22.8677 13.7484 23.7567ZM13.7019 13.7978L10.3642 10.4615C9.70439 9.80188 9.25508 8.96142 9.07305 8.04647C8.89102 7.1315 8.98446 6.18312 9.34155 5.32125C9.69864 4.45938 10.3033 3.72273 11.0792 3.20445C11.855 2.68619 12.7672 2.40955 13.7003 2.40955C14.6334 2.40955 15.5455 2.68619 16.3213 3.20445C17.0972 3.72273 17.7019 4.45938 18.059 5.32125C18.416 6.18312 18.5096 7.1315 18.3275 8.04647C18.1455 8.96142 17.6962 9.80188 17.0364 10.4615L13.7019 13.7978ZM17.0922 27.0944C17.9803 26.2319 19.1721 25.7534 20.4102 25.7621C21.6484 25.7707 22.8333 26.2659 23.7092 27.1408C22.8212 28.0033 21.6294 28.482 20.3912 28.4733C19.1531 28.4646 17.9681 27.9693 17.0922 27.0944ZM25.4315 15.4173C24.7742 16.0744 24.2527 16.8545 23.8968 17.7132C23.541 18.5717 23.358 19.4921 23.358 20.4214C23.358 21.3508 23.541 22.2711 23.8968 23.1297C24.2527 23.9884 24.7742 24.7685 25.4315 25.4256C24.1035 24.0987 22.3029 23.3532 20.4254 23.3532C18.5479 23.3532 16.7473 24.0987 15.4193 25.4256L15.4178 25.4239C16.7234 24.0927 17.4511 22.3001 17.4423 20.4358C17.4336 18.5714 16.6894 16.7857 15.3713 15.4668L18.7043 12.1293C19.4813 11.3552 20.0653 10.4093 20.409 9.36785C20.7558 10.3899 21.3335 11.3184 22.0973 12.0811L25.4315 15.417V15.4173ZM27.0986 17.084C27.9828 17.9692 28.4794 19.1692 28.4794 20.4203C28.4794 21.6713 27.9828 22.8713 27.0986 23.7565V23.7584C26.2147 22.8725 25.7184 21.6725 25.7186 20.4213C25.7186 19.1701 26.215 17.9699 27.0989 17.0842L27.0986 17.084ZM37.0586 30.4797C36.6205 30.9179 36.1005 31.2655 35.528 31.5027C34.9556 31.7397 34.3419 31.8619 33.7224 31.8619C33.1028 31.8619 32.4891 31.7397 31.9166 31.5027C31.3442 31.2655 30.8242 30.9179 30.3861 30.4797L27.0497 27.1434L30.3859 23.8062V23.8047C31.2713 22.92 32.4719 22.4233 33.7236 22.4237C34.9754 22.424 36.1757 22.9215 37.0606 23.8067C37.9453 24.6917 38.4423 25.8921 38.442 27.1436C38.4416 28.395 37.944 29.595 37.0586 30.4797Z" fill="#FF9698"/>
</g>
</svg>
